<svg width="26" height="18" viewBox="0 0 26 18" fill="none" xmlns="http://www.w3.org/2000/svg">
<path d="M9.55255 0.0480213H13.1525V16.848H9.55255V9.64802H3.60055V16.848H0.000546932V0.0480213H3.60055V6.04802H9.55255V0.0480213ZM16.0318 4.84802H19.6318V16.848H16.0318V4.84802ZM17.8558 3.60002C17.3358 3.60002 16.8998 3.42802 16.5478 3.08402C16.1958 2.74002 16.0198 2.31202 16.0198 1.80002C16.0198 1.29602 16.1958 0.872022 16.5478 0.528022C16.8998 0.176022 17.3318 2.19345e-05 17.8438 2.19345e-05C18.3478 2.19345e-05 18.7718 0.176022 19.1158 0.528022C19.4678 0.872022 19.6438 1.29602 19.6438 1.80002C19.6438 2.31202 19.4718 2.74002 19.1278 3.08402C18.7918 3.42802 18.3678 3.60002 17.8558 3.60002ZM23.8205 17.16C23.3165 17.16 22.8885 16.988 22.5365 16.644C22.1925 16.292 22.0205 15.864 22.0205 15.36C22.0205 14.864 22.1925 14.44 22.5365 14.088C22.8885 13.736 23.3165 13.56 23.8205 13.56C24.3165 13.56 24.7405 13.736 25.0925 14.088C25.4445 14.44 25.6205 14.864 25.6205 15.36C25.6205 15.864 25.4445 16.292 25.0925 16.644C24.7405 16.988 24.3165 17.16 23.8205 17.16Z" fill="#F2F2F2"/>
</svg>
