<svg width="44" height="44" viewBox="0 0 44 44" fill="none" xmlns="http://www.w3.org/2000/svg">
<path fill-rule="evenodd" clip-rule="evenodd" d="M4.71968 27.0627C5.71752 28.0548 5.71751 29.6633 4.71964 30.6554L4.66854 30.7062C3.67067 31.6983 2.05283 31.6983 1.05498 30.7062C0.0571386 29.714 0.0571539 28.1055 1.05502 27.1135L1.10612 27.0627C2.10399 26.0706 3.72183 26.0706 4.71968 27.0627Z" fill="#A4BCFD"/>
<path fill-rule="evenodd" clip-rule="evenodd" d="M16.7322 27.8281C17.7283 28.822 17.7254 30.4305 16.7257 31.4208L9.64789 38.4324C8.64823 39.4227 7.03039 39.4198 6.03434 38.4259C5.03829 37.432 5.04122 35.8235 6.04088 34.8332L13.1187 27.8216C14.1184 26.8313 15.7362 26.8342 16.7322 27.8281Z" fill="#6172F3"/>
<path fill-rule="evenodd" clip-rule="evenodd" d="M26.3385 39.8979C27.1213 38.7305 28.7077 38.415 29.8819 39.1933L30.0352 39.2949C31.2094 40.0732 31.5267 41.6504 30.7439 42.8178C29.9611 43.9852 28.3747 44.3007 27.2005 43.5224L27.0472 43.4208C25.873 42.6425 25.5557 41.0653 26.3385 39.8979Z" fill="#A4BCFD"/>
<path fill-rule="evenodd" clip-rule="evenodd" d="M43.2005 26.9103C44.1984 27.9024 44.1984 29.5109 43.2005 30.503L39.7255 33.958C38.7276 34.9501 37.1098 34.9501 36.1119 33.958C35.1141 32.9659 35.1141 31.3574 36.1119 30.3653L39.5869 26.9103C40.5848 25.9182 42.2026 25.9182 43.2005 26.9103Z" fill="#6172F3"/>
<path fill-rule="evenodd" clip-rule="evenodd" d="M43.2516 14.132C44.2495 15.1241 44.2495 16.7326 43.2516 17.7247L17.5722 43.2559C16.5743 44.248 14.9565 44.248 13.9586 43.2559C12.9607 42.2638 12.9607 40.6553 13.9586 39.6632L39.638 14.132C40.6359 13.1399 42.2537 13.1399 43.2516 14.132Z" fill="#3538CD"/>
<path fill-rule="evenodd" clip-rule="evenodd" d="M38.3968 6.28216C39.3946 7.27425 39.3946 8.88275 38.3968 9.87485L23.6279 24.5584C22.63 25.5505 21.0122 25.5505 20.0144 24.5584C19.0165 23.5664 19.0165 21.9579 20.0144 20.9658L34.7832 6.28216C35.7811 5.29006 37.3989 5.29006 38.3968 6.28216Z" fill="#3538CD"/>
<path fill-rule="evenodd" clip-rule="evenodd" d="M30.6023 1.3017C31.6008 2.29313 31.6019 3.90163 30.6047 4.89439L11.6198 23.7951C10.6227 24.7878 9.00482 24.7889 8.00629 23.7975C7.00776 22.8061 7.00668 21.1976 8.00386 20.2048L26.9888 1.30412C27.9859 0.311356 29.6038 0.310274 30.6023 1.3017Z" fill="#3538CD"/>
<path fill-rule="evenodd" clip-rule="evenodd" d="M11.8006 7.35215C12.7967 8.34595 12.7939 9.95445 11.7944 10.9448L4.35883 18.312C3.35926 19.3024 1.74142 19.2997 0.745284 18.3059C-0.250852 17.312 -0.248067 15.7036 0.751504 14.7132L8.18704 7.34596C9.18661 6.35558 10.8045 6.35835 11.8006 7.35215Z" fill="#6172F3"/>
<path fill-rule="evenodd" clip-rule="evenodd" d="M16.3531 0C17.7643 0 18.9083 1.13738 18.9083 2.54042V2.79446C18.9083 4.19749 17.7643 5.33487 16.3531 5.33487C14.9419 5.33487 13.7979 4.19749 13.7979 2.79446V2.54042C13.7979 1.13738 14.9419 0 16.3531 0Z" fill="#A4BCFD"/>
</svg>
